<svg width="142" height="89" viewBox="0 0 142 89" fill="none" xmlns="http://www.w3.org/2000/svg">
<path d="M15.7048 76.385C13.9315 76.385 12.2748 76.07 10.7348 75.44C9.21812 74.7867 7.87645 73.8883 6.70979 72.745C5.56645 71.5783 4.66812 70.2367 4.01479 68.72C3.38479 67.18 3.06979 65.5233 3.06979 63.75C3.06979 61.9767 3.38479 60.3317 4.01479 58.815C4.66812 57.275 5.56645 55.9333 6.70979 54.79C7.87645 53.6233 9.21812 52.725 10.7348 52.095C12.2748 51.4417 13.9315 51.115 15.7048 51.115C17.4548 51.115 19.0881 51.4417 20.6048 52.095C22.1448 52.725 23.4865 53.6233 24.6298 54.79C25.7965 55.9333 26.6948 57.275 27.3248 58.815C27.9781 60.3317 28.3048 61.9767 28.3048 63.75C28.3048 65.5233 27.9781 67.18 27.3248 68.72C26.6948 70.2367 25.7965 71.5783 24.6298 72.745C23.4865 73.8883 22.1448 74.7867 20.6048 75.44C19.0881 76.07 17.4548 76.385 15.7048 76.385ZM15.7048 73.9C17.1048 73.9 18.3998 73.6433 19.5898 73.13C20.7798 72.6167 21.8181 71.905 22.7048 70.995C23.6148 70.0617 24.3148 68.9767 24.8048 67.74C25.3181 66.5033 25.5748 65.1733 25.5748 63.75C25.5748 62.3033 25.3181 60.9733 24.8048 59.76C24.3148 58.5233 23.6148 57.45 22.7048 56.54C21.8181 55.6067 20.7798 54.8833 19.5898 54.37C18.3998 53.8567 17.1048 53.6 15.7048 53.6C14.3048 53.6 12.9981 53.8567 11.7848 54.37C10.5948 54.8833 9.54479 55.6067 8.63479 56.54C7.74812 57.45 7.04812 58.5233 6.53479 59.76C6.04479 60.9733 5.79979 62.2917 5.79979 63.715C5.79979 65.1617 6.04479 66.5033 6.53479 67.74C7.04812 68.9767 7.74812 70.0617 8.63479 70.995C9.54479 71.905 10.5948 72.6167 11.7848 73.13C12.9981 73.6433 14.3048 73.9 15.7048 73.9ZM37.6006 76L30.0056 58.465H32.8756L38.8606 72.64L44.8456 58.465H47.6106L40.0506 76H37.6006ZM57.6922 76.315C56.0122 76.315 54.4839 75.9183 53.1072 75.125C51.7539 74.3083 50.6689 73.2117 49.8522 71.835C49.0589 70.4583 48.6622 68.9183 48.6622 67.215C48.6622 65.535 49.0472 64.0183 49.8172 62.665C50.5872 61.2883 51.6255 60.2033 52.9322 59.41C54.2389 58.5933 55.6972 58.185 57.3072 58.185C58.8705 58.185 60.2705 58.5933 61.5072 59.41C62.7672 60.2033 63.7589 61.2883 64.4822 62.665C65.2289 64.0183 65.6022 65.535 65.6022 67.215V68.02H51.2172C51.3572 69.1633 51.7189 70.19 52.3022 71.1C52.9089 72.01 53.6905 72.7333 54.6472 73.27C55.6039 73.7833 56.6539 74.04 57.7972 74.04C58.7072 74.04 59.5939 73.9 60.4572 73.62C61.3205 73.34 62.0439 72.9433 62.6272 72.43L64.2372 74.145C63.2572 74.8683 62.2305 75.4167 61.1572 75.79C60.1072 76.14 58.9522 76.315 57.6922 76.315ZM51.2872 65.955H63.0122C62.8722 64.905 62.5222 63.9717 61.9622 63.155C61.4255 62.315 60.7489 61.6617 59.9322 61.195C59.1155 60.705 58.2172 60.46 57.2372 60.46C56.2339 60.46 55.3122 60.6933 54.4722 61.16C53.6322 61.6267 52.9322 62.28 52.3722 63.12C51.8122 63.9367 51.4505 64.8817 51.2872 65.955ZM69.2231 76V58.465H71.8131V60.95C72.3497 60.04 73.0264 59.34 73.8431 58.85C74.6831 58.3367 75.6397 58.08 76.7131 58.08C77.3197 58.08 77.8681 58.1617 78.3581 58.325V60.705C78.0547 60.5883 77.7514 60.5067 77.4481 60.46C77.1447 60.4133 76.8414 60.39 76.5381 60.39C75.4647 60.39 74.5197 60.705 73.7031 61.335C72.9097 61.9417 72.2797 62.8283 71.8131 63.995V76H69.2231ZM81.8127 76V51.5H85.5927L93.9577 68.895L102.288 51.5H106.068V76H103.513V54.58L93.9227 74.25L84.3327 54.615V76H81.8127ZM116.145 76.315C114.861 76.315 113.73 76.0933 112.75 75.65C111.793 75.2067 111.035 74.5883 110.475 73.795C109.938 73.0017 109.67 72.08 109.67 71.03C109.67 69.3733 110.3 68.0667 111.56 67.11C112.82 66.1533 114.523 65.675 116.67 65.675C118.56 65.675 120.275 66.0717 121.815 66.865V64.555C121.815 63.155 121.418 62.105 120.625 61.405C119.831 60.6817 118.676 60.32 117.16 60.32C116.296 60.32 115.421 60.4483 114.535 60.705C113.671 60.9383 112.715 61.3233 111.665 61.86L110.685 59.865C111.945 59.2583 113.111 58.815 114.185 58.535C115.258 58.255 116.331 58.115 117.405 58.115C119.621 58.115 121.325 58.64 122.515 59.69C123.728 60.74 124.335 62.245 124.335 64.205V76H121.815V74.285C121.021 74.9617 120.146 75.475 119.19 75.825C118.256 76.1517 117.241 76.315 116.145 76.315ZM112.155 70.96C112.155 71.94 112.563 72.745 113.38 73.375C114.22 73.9817 115.293 74.285 116.6 74.285C117.65 74.285 118.606 74.1217 119.47 73.795C120.333 73.4683 121.115 72.955 121.815 72.255V68.965C121.091 68.475 120.321 68.125 119.505 67.915C118.688 67.6817 117.766 67.565 116.74 67.565C115.34 67.565 114.22 67.88 113.38 68.51C112.563 69.1167 112.155 69.9333 112.155 70.96ZM128.662 76V58.465H131.252V76H128.662ZM129.957 55.105C129.49 55.105 129.082 54.93 128.732 54.58C128.382 54.23 128.207 53.8217 128.207 53.355C128.207 52.865 128.382 52.4567 128.732 52.13C129.082 51.78 129.49 51.605 129.957 51.605C130.447 51.605 130.855 51.78 131.182 52.13C131.532 52.4567 131.707 52.865 131.707 53.355C131.707 53.8217 131.532 54.23 131.182 54.58C130.855 54.93 130.447 55.105 129.957 55.105ZM135.668 76V51.5L138.258 50.905V76H135.668Z" fill="black"/>
<path d="M41.6 1C39.7333 1 36 2.33333 36 7.66667V34.3333C36 36.5556 37.12 41 41.6 41H100.4C102.267 41 106 39.6667 106 34.3333V7.66667C106 5.44444 104.88 1 100.4 1H41.6Z" fill="#2E6395" stroke="#2E6395"/>
<path d="M71 17L42.7742 5L62.9355 21L46.8064 33L66.9677 25L71 31L75.0322 25L95.1935 33L79.0645 21L99.2258 5L71 17Z" fill="white"/>
</svg>
