<svg width="16" height="15" viewBox="0 0 16 15" fill="none" xmlns="http://www.w3.org/2000/svg">
<path fill-rule="evenodd" clip-rule="evenodd" d="M11.3356 4.60892C11.3356 5.37304 10.9841 6.10586 10.3583 6.64617C9.7326 7.1865 8.88389 7.49004 7.99896 7.49004C7.11402 7.49004 6.26533 7.1865 5.63959 6.64617C5.01383 6.10586 4.66229 5.37304 4.66229 4.60892C4.66229 3.84481 5.01383 3.11198 5.63959 2.57166C6.26533 2.03135 7.11402 1.72781 7.99896 1.72781C8.88389 1.72781 9.7326 2.03135 10.3583 2.57166C10.9841 3.11198 11.3356 3.84481 11.3356 4.60892ZM11.417 8.15039C12.2596 7.54379 12.8653 6.72779 13.1518 5.81339C13.4383 4.89898 13.3914 3.93059 13.0178 3.03996C12.6443 2.14933 11.962 1.37969 11.0639 0.835743C10.1657 0.291811 9.09532 0 7.99829 0C6.90126 0 5.83086 0.291811 4.93272 0.835743C4.03459 1.37969 3.3523 2.14933 2.97873 3.03996C2.60514 3.93059 2.55838 4.89898 2.84481 5.81339C3.13124 6.72779 3.73695 7.54379 4.57954 8.15039C3.26568 8.68674 2.14547 9.52152 1.33884 10.5653C0.532208 11.6092 0.0695188 12.8228 0.000302971 14.0763C-0.00613012 14.3022 0.0900994 14.5212 0.268411 14.6865C0.446709 14.8519 0.692901 14.9504 0.954282 14.9609C1.21565 14.9715 1.47141 14.8932 1.66679 14.743C1.86218 14.5927 1.98166 14.3824 1.99963 14.1569C2.0724 12.8253 2.73624 11.569 3.85336 10.6489C4.97048 9.72871 6.45507 9.21534 7.99896 9.21534C9.54285 9.21534 11.0274 9.72871 12.1446 10.6489C13.2617 11.569 13.9255 12.8253 13.9983 14.1569C14.0016 14.2721 14.0314 14.3854 14.0861 14.4904C14.1408 14.5953 14.2193 14.6898 14.3169 14.7682C14.4144 14.8467 14.5292 14.9075 14.6543 14.9472C14.7795 14.9868 14.9125 15.0045 15.0457 14.999C15.1789 14.9937 15.3095 14.9654 15.4298 14.9158C15.5501 14.8663 15.6578 14.7966 15.7464 14.7106C15.8352 14.6246 15.903 14.5242 15.9461 14.4153C15.9893 14.3064 16.0068 14.1911 15.9976 14.0763C15.9282 12.8226 15.4653 11.609 14.6585 10.5651C13.8516 9.52129 12.7312 8.68658 11.417 8.15039Z" fill="#2E6395"/>
</svg>
