<svg width="13" height="17" viewBox="0 0 13 17" fill="none" xmlns="http://www.w3.org/2000/svg">
<path fill-rule="evenodd" clip-rule="evenodd" d="M4.8654 1.96412C4.8654 1.80916 4.98642 1.68353 5.1357 1.68353H7.83871C7.98799 1.68353 8.10901 1.80916 8.10901 1.96412V3.36706H4.8654V1.96412ZM9.73081 1.96412V3.36706H12.1635C12.6113 3.36706 12.9744 3.74394 12.9744 4.20883C12.9744 4.67372 12.6113 5.05059 12.1635 5.05059H0.810901C0.363056 5.05059 0 4.67372 0 4.20883C0 3.74394 0.363056 3.36706 0.810901 3.36706H3.2436V1.96412C3.2436 0.879366 4.09072 0 5.1357 0H7.83871C8.88369 0 9.73081 0.879366 9.73081 1.96412ZM2.69897 7.49213C2.65441 7.02954 2.25704 6.69203 1.81141 6.7383C1.36578 6.78455 1.04066 7.19706 1.08522 7.65964L1.79876 15.0666C1.89549 16.0706 2.7094 16.8353 3.68147 16.8353H9.29292C10.265 16.8353 11.079 16.0706 11.1756 15.0666L11.8892 7.65964C11.9338 7.19706 11.6086 6.78455 11.163 6.7383C10.7174 6.69203 10.32 7.02954 10.2754 7.49213L9.56192 14.8991C9.54809 15.0426 9.43175 15.1518 9.29292 15.1518H3.68147C3.54261 15.1518 3.42633 15.0426 3.41251 14.8991L2.69897 7.49213Z" fill="#2E6395"/>
</svg>
