<svg width="16" height="16" viewBox="0 0 16 16" fill="none" xmlns="http://www.w3.org/2000/svg">
<path fill-rule="evenodd" clip-rule="evenodd" d="M4.74126 4.73074C5.06295 4.42309 5.5845 4.42309 5.90618 4.73074L8.06946 6.79965L10.2327 4.73074C10.5544 4.42309 11.076 4.42309 11.3977 4.73074C11.7193 5.0384 11.7193 5.5372 11.3977 5.84485L9.23437 7.91375L11.3977 9.98266C11.7193 10.2903 11.7193 10.7891 11.3977 11.0968C11.076 11.4044 10.5544 11.4044 10.2327 11.0968L8.06946 9.02785L5.90618 11.0968C5.5845 11.4044 5.06294 11.4044 4.74126 11.0968C4.41958 10.7891 4.41958 10.2903 4.74126 9.98265L6.90454 7.91375L4.74126 5.84484C4.41958 5.53719 4.41958 5.03839 4.74126 4.73074Z" fill="#2E6395"/>
<path d="M15 8C15 5.66667 13.6 1 8 1C5.66667 1 1 2.4 1 8C1 10.3333 2.4 15 8 15C10.3333 15 15 13.6 15 8Z" stroke="#2E6395" stroke-width="1.8"/>
</svg>
