<svg width="17" height="14" viewBox="0 0 17 14" fill="none" xmlns="http://www.w3.org/2000/svg">
<path d="M7.70318 2.64443L7.70326 2.64447C7.84203 2.71384 7.99511 2.75 8.15039 2.75H14.6504C14.9156 2.75 15.1699 2.85534 15.3575 3.0429C15.545 3.23045 15.6504 3.48481 15.6504 3.75V12.25C15.6504 12.5151 15.545 12.7695 15.3575 12.9571C15.1699 13.1447 14.9155 13.25 14.6504 13.25H2.15039C1.5986 13.25 1.15039 12.8018 1.15039 12.25V1.75C1.15039 1.48478 1.25575 1.23043 1.44328 1.04289C1.63082 0.855355 1.88517 0.75 2.15039 0.75H5.65039C5.96432 0.75 6.26203 0.898854 6.45039 1.15L7.35039 2.35L7.35042 2.35003C7.44353 2.47417 7.56428 2.57498 7.70318 2.64443Z" fill="white" stroke="#9E325A" stroke-width="1.5"/>
</svg>
