<svg width="15" height="15" viewBox="0 0 15 15" fill="none" xmlns="http://www.w3.org/2000/svg">
<path fill-rule="evenodd" clip-rule="evenodd" d="M0.496839 7.40477C0.502069 6.74232 1.04333 6.20106 1.70578 6.19583L6.16066 6.16065L6.19584 1.70578C6.20107 1.04333 6.74233 0.502072 7.40478 0.496843C8.06722 0.491613 8.6 1.02439 8.59477 1.68684L8.55959 6.14171L13.0145 6.10654C13.6769 6.10131 14.2097 6.63409 14.2045 7.29654C14.1992 7.95898 13.658 8.50025 12.9955 8.50548L8.54065 8.54065L8.50547 12.9955C8.50024 13.658 7.95898 14.1992 7.29653 14.2045C6.63408 14.2097 6.1013 13.6769 6.10653 13.0145L6.14171 8.55959L1.68684 8.59476C1.02439 8.59999 0.491608 8.06721 0.496839 7.40477Z" fill="#9E325A"/>
</svg>
