<svg width="4" height="19" viewBox="0 0 4 19" fill="none" xmlns="http://www.w3.org/2000/svg">
<path d="M4 17.2188C4 16.235 3.10457 15.4375 2 15.4375C0.895426 15.4375 0 16.235 0 17.2188C0 18.2025 0.895426 19 2 19C3.10457 19 4 18.2025 4 17.2188Z" fill="#9E325A"/>
<path d="M4 9.5C4 8.51624 3.10457 7.71875 2 7.71875C0.895426 7.71875 0 8.51624 0 9.5C0 10.4838 0.895426 11.2812 2 11.2812C3.10457 11.2812 4 10.4838 4 9.5Z" fill="#9E325A"/>
<path d="M2 0C3.10457 0 4 0.797525 4 1.78125C4 2.76497 3.10457 3.5625 2 3.5625C0.895426 3.5625 0 2.76497 0 1.78125C0 0.797525 0.895426 0 2 0Z" fill="#9E325A"/>
</svg>
