<svg width="16" height="21" viewBox="0 0 16 21" fill="none" xmlns="http://www.w3.org/2000/svg">
<path fill-rule="evenodd" clip-rule="evenodd" d="M2.33333 2.1C2.24493 2.1 2.16015 2.13688 2.09763 2.20251C2.03512 2.26815 2 2.35718 2 2.45V18.55C2 18.7432 2.14933 18.9 2.33333 18.9H13.6667C13.7551 18.9 13.8399 18.8632 13.9024 18.7975C13.9649 18.7319 14 18.6428 14 18.55V8.4H10.3333C9.71449 8.4 9.121 8.14188 8.68341 7.68242C8.24583 7.22295 8 6.59978 8 5.95V2.1H2.33333ZM10 2.884V5.95C10 6.1432 10.1493 6.3 10.3333 6.3H13.2533L10 2.884ZM0 2.45C0 1.0976 1.04533 0 2.33333 0H9.11467C9.73333 0 10.3267 0.2576 10.764 0.7182L15.316 5.4978C15.7547 5.957 16 6.58 16 7.2296V18.55C16 19.1997 15.7541 19.8229 15.3165 20.2824C14.8789 20.7418 14.2855 21 13.6667 21H2.33333C1.71449 21 1.121 20.7418 0.683413 20.2824C0.245827 19.8229 0 19.1997 0 18.55V2.45Z" fill="#309837"/>
</svg>
