<svg width="15" height="18" viewBox="0 0 15 18" fill="none" xmlns="http://www.w3.org/2000/svg">
<path fill-rule="evenodd" clip-rule="evenodd" d="M0.109131 2.27141C0.109131 1.10917 1.00441 0.166992 2.1088 0.166992H4.96547C5.43877 0.166992 5.82247 0.570787 5.82247 1.06888C5.82247 1.56698 5.43877 1.97077 4.96547 1.97077H2.1088C1.95103 1.97077 1.82313 2.10537 1.82313 2.27141V14.8979C1.82313 15.064 1.95103 15.1985 2.1088 15.1985H4.96547C5.43877 15.1985 5.82247 15.6023 5.82247 16.1004C5.82247 16.5985 5.43877 17.0023 4.96547 17.0023H2.1088C1.00441 17.0023 0.109131 16.0601 0.109131 14.8979V2.27141ZM7.60579 7.68275L9.85643 5.31418C10.1911 4.96198 10.1911 4.39092 9.85643 4.03872C9.52174 3.68651 8.97916 3.68651 8.64448 4.03872L4.93081 7.94691C4.59614 8.29912 4.59614 8.87017 4.93081 9.22238L8.64448 13.1305C8.97916 13.4828 9.52174 13.4828 9.85643 13.1305C10.1911 12.7783 10.1911 12.2074 9.85643 11.8551L7.60579 9.48654H14.1068C14.5801 9.48654 14.9638 9.08274 14.9638 8.58465C14.9638 8.08654 14.5801 7.68275 14.1068 7.68275H7.60579Z" fill="#309837"/>
</svg>
