<svg width="15" height="14" viewBox="0 0 15 14" fill="none" xmlns="http://www.w3.org/2000/svg">
<path fill-rule="evenodd" clip-rule="evenodd" d="M6.03309 0.251049C6.3526 0.58578 6.3526 1.1285 6.03309 1.46323L2.79344 4.85714H9.81818C12.68 4.85714 15 7.28758 15 10.2857V13.1429C15 13.6162 14.6337 14 14.1818 14C13.73 14 13.3636 13.6162 13.3636 13.1429V10.2857C13.3636 8.23436 11.7763 6.57143 9.81818 6.57143H2.79344L6.03309 9.96537C6.3526 10.3001 6.3526 10.8427 6.03309 11.1775C5.71357 11.5122 5.19552 11.5122 4.876 11.1775L0.239637 6.32038C-0.0798791 5.98564 -0.0798791 5.44292 0.239637 5.10819L4.876 0.251049C5.19552 -0.0836829 5.71357 -0.0836829 6.03309 0.251049Z" fill="#309837"/>
</svg>
