<svg width="15" height="18" viewBox="0 0 15 18" fill="none" xmlns="http://www.w3.org/2000/svg">
<path fill-rule="evenodd" clip-rule="evenodd" d="M0.109131 2.84514C0.109131 1.6829 1.00441 0.740723 2.1088 0.740723H4.96548C5.43878 0.740723 5.82248 1.14452 5.82248 1.64261C5.82248 2.14071 5.43878 2.54451 4.96548 2.54451H2.1088C1.95103 2.54451 1.82314 2.6791 1.82314 2.84514V15.4716C1.82314 15.6377 1.95103 15.7722 2.1088 15.7722H4.96548C5.43878 15.7722 5.82248 16.1761 5.82248 16.6741C5.82248 17.1722 5.43878 17.576 4.96548 17.576H2.1088C1.00441 17.576 0.109131 16.6339 0.109131 15.4716V2.84514ZM12.0378 8.25648H5.53684C5.06353 8.25648 4.67983 8.66028 4.67983 9.15838C4.67983 9.65648 5.06353 10.0603 5.53684 10.0603H12.0378L9.7872 12.4289C9.45252 12.7811 9.45252 13.3521 9.7872 13.7043C10.1219 14.0565 10.6644 14.0565 10.9991 13.7043L14.7128 9.79611C15.0475 9.4439 15.0475 8.87285 14.7128 8.52064L10.9991 4.61245C10.6644 4.26024 10.1219 4.26024 9.7872 4.61245C9.45252 4.96465 9.45252 5.53571 9.7872 5.88791L12.0378 8.25648Z" fill="#309837"/>
</svg>
