<svg width="13" height="16" viewBox="0 0 13 16" fill="none" xmlns="http://www.w3.org/2000/svg">
<path fill-rule="evenodd" clip-rule="evenodd" d="M4.12275 0.304688C3.67837 0.304688 3.31812 0.660977 3.31812 1.10047V4.28362C3.31812 4.72312 3.67837 5.07941 4.12275 5.07941H8.95052C9.39489 5.07941 9.75515 4.72312 9.75515 4.28362V1.10047C9.75515 0.660977 9.39489 0.304688 8.95052 0.304688H4.12275ZM4.92738 3.48783V1.89626H8.1459V3.48783H4.92738ZM1.84355 2.99232C2.22822 2.77225 2.35966 2.28544 2.13714 1.90501C1.91464 1.52458 1.42242 1.39458 1.03776 1.61465C0.478686 1.9345 0.0996094 2.53429 0.0996094 3.22258V13.3025C0.0996094 14.328 0.940178 15.1594 1.97708 15.1594H11.0962C12.1331 15.1594 12.9737 14.328 12.9737 13.3025V3.22258C12.9737 2.53429 12.5946 1.9345 12.0355 1.61465C11.6509 1.39458 11.1586 1.52458 10.9361 1.90501C10.7136 2.28544 10.845 2.77225 11.2298 2.99232C11.3119 3.03938 11.3644 3.1254 11.3644 3.22258V13.3025C11.3644 13.4491 11.2444 13.5678 11.0962 13.5678H1.97708C1.82895 13.5678 1.70887 13.4491 1.70887 13.3025V3.22258C1.70887 3.1254 1.76129 3.03938 1.84355 2.99232Z" fill="#2E6395"/>
</svg>
