<svg width="14" height="18" viewBox="0 0 14 18" fill="none" xmlns="http://www.w3.org/2000/svg">
<path fill-rule="evenodd" clip-rule="evenodd" d="M3.88669 2.3035C3.88454 2.30487 3.88207 2.30655 3.87927 2.30858C2.59304 3.24163 1.75451 4.78745 1.75451 6.53645C1.75451 8.36631 2.6726 9.97417 4.06061 10.8898C4.63164 11.2665 5.08482 11.9472 5.05507 12.7687L5.05471 12.7784L4.87474 16.5994C4.85243 17.0732 4.46432 17.4386 4.00788 17.4153C3.55143 17.3922 3.1995 16.9893 3.22181 16.5155L3.40142 12.7012C3.40364 12.6047 3.3469 12.4545 3.173 12.3397C1.32731 11.1222 0.0996094 8.97842 0.0996094 6.53645C0.0996094 4.20276 1.22106 2.14109 2.93133 0.900443C3.53721 0.46093 4.2474 0.503251 4.7772 0.855457C5.28673 1.1942 5.61596 1.80268 5.61596 2.48543V5.71399C5.61596 5.80884 5.66123 5.89755 5.73682 5.95084L6.56427 6.53417C6.65781 6.60012 6.78065 6.60012 6.87418 6.53417L7.70164 5.95084C7.77723 5.89755 7.8225 5.80885 7.8225 5.71399V2.48543C7.8225 1.80268 8.15173 1.1942 8.66126 0.855457C9.19111 0.503251 9.90128 0.46093 10.5071 0.900443C12.2174 2.14109 13.3388 4.20276 13.3388 6.53645C13.3388 8.97842 12.1111 11.1222 10.2655 12.3397C10.0916 12.4545 10.0348 12.6047 10.0371 12.7012L10.2166 16.5155C10.239 16.9893 9.88705 17.3922 9.43062 17.4153C8.97409 17.4386 8.58603 17.0732 8.56372 16.5994L8.38335 12.7687C8.35358 11.9472 8.80681 11.2665 9.37789 10.8898C10.7659 9.97417 11.6839 8.36631 11.6839 6.53645C11.6839 4.78745 10.8455 3.24163 9.55916 2.30858C9.5564 2.30655 9.55397 2.30487 9.55176 2.3035C9.52529 2.32237 9.4774 2.38047 9.4774 2.48543V5.71399C9.4774 6.37802 9.16054 6.99894 8.63138 7.372L7.80393 7.95533C7.14916 8.41693 6.2893 8.41693 5.63453 7.95533L4.80707 7.372C4.27788 6.99894 3.96105 6.37802 3.96105 5.71399V2.48543C3.96105 2.38047 3.91322 2.32237 3.88669 2.3035Z" fill="#2E6395"/>
</svg>
