<svg width="18" height="18" viewBox="7 4 10 18" fill="none" xmlns="http://www.w3.org/2000/svg">
<path fill-rule="evenodd" clip-rule="evenodd" d="M7.20417 7.97301C4.53786 10.6393 4.53786 14.9622 7.20417 17.6286C9.87047 20.2949 14.1934 20.2949 16.8597 17.6286C19.526 14.9622 19.526 10.6393 16.8597 7.97301C14.1934 5.3067 9.87047 5.3067 7.20417 7.97301ZM6.09007 18.7427C2.80846 15.461 2.80846 10.1405 6.09007 6.85891C9.37167 3.5773 14.6922 3.5773 17.9738 6.85891C21.2554 10.1405 21.2554 15.461 17.9738 18.7427C14.6922 22.0243 9.37167 22.0243 6.09007 18.7427Z" fill="#2E6395"/>
<path fill-rule="evenodd" clip-rule="evenodd" d="M8.84915 9.61746C9.1568 9.30981 9.6556 9.30981 9.96325 9.61746L12.0322 11.6864L14.1011 9.61746C14.4087 9.30981 14.9075 9.30981 15.2152 9.61746C15.5228 9.92511 15.5228 10.4239 15.2152 10.7316L13.1463 12.8005L15.2152 14.8694C15.5228 15.177 15.5228 15.6758 15.2152 15.9835C14.9075 16.2911 14.4087 16.2911 14.1011 15.9835L12.0322 13.9146L9.96325 15.9835C9.6556 16.2911 9.1568 16.2911 8.84915 15.9835C8.5415 15.6758 8.5415 15.177 8.84915 14.8694L10.9181 12.8005L8.84915 10.7316C8.5415 10.4239 8.5415 9.92511 8.84915 9.61746Z" fill="#2E6395"/>
</svg>
