<svg width="14" height="18" viewBox="0 0 14 18" fill="none" xmlns="http://www.w3.org/2000/svg">
<path fill-rule="evenodd" clip-rule="evenodd" d="M4.96501 2.42603C4.96501 2.27107 5.08603 2.14544 5.23531 2.14544H7.93832C8.0876 2.14544 8.20862 2.27107 8.20862 2.42603V3.82898H4.96501V2.42603ZM9.83042 2.42603V3.82898H12.2631C12.711 3.82898 13.074 4.20585 13.074 4.67074C13.074 5.13563 12.711 5.51251 12.2631 5.51251H0.91051C0.462666 5.51251 0.0996094 5.13563 0.0996094 4.67074C0.0996094 4.20585 0.462666 3.82898 0.91051 3.82898H3.34321V2.42603C3.34321 1.34128 4.19033 0.461914 5.23531 0.461914H7.93832C8.9833 0.461914 9.83042 1.34128 9.83042 2.42603ZM2.79858 7.95404C2.75402 7.49145 2.35665 7.15395 1.91102 7.20021C1.46539 7.24646 1.14027 7.65897 1.18483 8.12155L1.89837 15.5285C1.9951 16.5326 2.80901 17.2972 3.78108 17.2972H9.39253C10.3646 17.2972 11.1786 16.5326 11.2752 15.5285L11.9888 8.12155C12.0334 7.65897 11.7082 7.24646 11.2626 7.20021C10.817 7.15395 10.4196 7.49145 10.375 7.95404L9.66153 15.361C9.64769 15.5045 9.53136 15.6137 9.39253 15.6137H3.78108C3.64222 15.6137 3.52594 15.5045 3.51212 15.361L2.79858 7.95404Z" fill="#2E6395"/>
</svg>
