<svg width="14" height="16" viewBox="0 0 14 16" fill="none" xmlns="http://www.w3.org/2000/svg">
<path fill-rule="evenodd" clip-rule="evenodd" d="M4.72236 0.304688C4.27798 0.304688 3.91773 0.660977 3.91773 1.10047V4.28362C3.91773 4.72312 4.27798 5.07941 4.72236 5.07941H9.55013C9.9945 5.07941 10.3548 4.72312 10.3548 4.28362V1.10047C10.3548 0.660977 9.9945 0.304688 9.55013 0.304688H4.72236ZM5.52699 3.48783V1.89626H8.74551V3.48783H5.52699ZM2.44316 2.99232C2.82783 2.77225 2.95927 2.28544 2.73675 1.90501C2.51425 1.52458 2.02203 1.39458 1.63737 1.61465C1.0783 1.9345 0.699219 2.53429 0.699219 3.22258V13.3025C0.699219 14.328 1.53979 15.1594 2.57669 15.1594H11.6958C12.7327 15.1594 13.5733 14.328 13.5733 13.3025V3.22258C13.5733 2.53429 13.1942 1.9345 12.6351 1.61465C12.2505 1.39458 11.7582 1.52458 11.5357 1.90501C11.3132 2.28544 11.4447 2.77225 11.8294 2.99232C11.9116 3.03938 11.964 3.1254 11.964 3.22258V13.3025C11.964 13.4491 11.844 13.5678 11.6958 13.5678H2.57669C2.42856 13.5678 2.30848 13.4491 2.30848 13.3025V3.22258C2.30848 3.1254 2.36089 3.03938 2.44316 2.99232Z" fill="#A76535"/>
</svg>
