<svg width="14" height="17" viewBox="0 0 14 17" fill="none" xmlns="http://www.w3.org/2000/svg">
<path fill-rule="evenodd" clip-rule="evenodd" d="M2.33333 4.53333V6.8H2.04167C1.50018 6.8 0.980875 7.00895 0.597987 7.3809C0.215098 7.75285 0 8.25732 0 8.78333V15.0167C0 16.1115 0.914667 17 2.04167 17H11.9583C12.4998 17 13.0191 16.791 13.402 16.4191C13.7849 16.0471 14 15.5426 14 15.0167V8.78333C14 8.25732 13.7849 7.75285 13.402 7.3809C13.0191 7.00895 12.4998 6.8 11.9583 6.8H11.6667V4.53333C11.6667 3.33101 11.175 2.17795 10.2998 1.32778C9.42468 0.477617 8.23768 0 7 0C5.76232 0 4.57534 0.477617 3.70016 1.32778C2.825 2.17795 2.33333 3.33101 2.33333 4.53333ZM9.91667 6.8V4.53333C9.91667 3.78189 9.60937 3.06121 9.0624 2.52986C8.51542 1.99851 7.77355 1.7 7 1.7C6.22645 1.7 5.48458 1.99851 4.9376 2.52986C4.39062 3.06121 4.08333 3.78189 4.08333 4.53333V6.8H9.91667ZM11.6667 8.5H11.9583C12.0357 8.5 12.1099 8.52985 12.1646 8.58298C12.2193 8.63612 12.25 8.70819 12.25 8.78333V15.0167C12.25 15.0918 12.2193 15.1639 12.1646 15.217C12.1099 15.2702 12.0357 15.3 11.9583 15.3H2.04167C1.96432 15.3 1.89013 15.2702 1.83542 15.217C1.78073 15.1639 1.75 15.0918 1.75 15.0167V8.78333C1.75 8.70819 1.78073 8.63612 1.83542 8.58298C1.89013 8.52985 1.96432 8.5 2.04167 8.5H11.6667Z" fill="#A76535"/>
</svg>
