<svg width="15" height="14" viewBox="0 0 15 14" fill="none" xmlns="http://www.w3.org/2000/svg">
<path fill-rule="evenodd" clip-rule="evenodd" d="M7.28326 0.307546C7.69195 -0.102515 8.35457 -0.102515 8.76325 0.307546L14.6935 6.25752C15.1022 6.66757 15.1022 7.3324 14.6935 7.74245L8.76325 13.6925C8.35457 14.1025 7.69195 14.1025 7.28326 13.6925C6.87458 13.2824 6.87458 12.6176 7.28326 12.2075L11.427 8.04999L1.04651 8.04999C0.468557 8.04999 -9.53674e-07 7.57988 -9.53674e-07 6.99998C-9.53674e-07 6.42009 0.468557 5.94998 1.04651 5.94998L11.427 5.94998L7.28326 1.79239C6.87458 1.38233 6.87458 0.717607 7.28326 0.307546Z" fill="#A76535"/>
</svg>
