<svg width="14" height="20" viewBox="0 0 14 20" fill="none" xmlns="http://www.w3.org/2000/svg">
<path fill-rule="evenodd" clip-rule="evenodd" d="M0 5C0 2.23858 2.23858 0 5 0C7.76142 0 10 2.23858 10 5V13C10 14.6569 8.65685 16 7 16C5.34315 16 4 14.6569 4 13L4 5C4 4.44772 4.44772 4 5 4C5.55228 4 6 4.44772 6 5L6 13L6.00673 13.1166C6.06449 13.614 6.48716 14 7 14C7.51284 14 7.93551 13.614 7.99327 13.1166L8 13L8 5C8 3.34315 6.65685 2 5 2C3.34315 2 2 3.34315 2 5L2 13C2 15.7614 4.23858 18 7 18C9.68875 18 11.8818 15.8777 11.9954 13.2169L12 13V5C12 4.44772 12.4477 4 13 4C13.5523 4 14 4.44772 14 5V13C14 16.866 10.866 20 7 20C3.13401 20 0 16.866 0 13L0 5Z" fill="#2E6395"/>
</svg>
