<svg width="15" height="15" viewBox="0 0 15 15" fill="none" xmlns="http://www.w3.org/2000/svg">
<path fill-rule="evenodd" clip-rule="evenodd" d="M0.506936 0.50693C1.18284 -0.168977 2.2787 -0.168976 2.95461 0.506931L7.5 5.05232L12.0454 0.506942C12.7213 -0.168964 13.8172 -0.168963 14.4931 0.506945C15.169 1.18285 15.169 2.27872 14.4931 2.95462L9.94768 7.5L14.4931 12.0454C15.169 12.7213 15.169 13.8172 14.4931 14.4931C13.8172 15.169 12.7213 15.169 12.0454 14.4931L7.5 9.94768L2.95461 14.4931C2.2787 15.169 1.18284 15.169 0.506929 14.4931C-0.168977 13.8171 -0.168976 12.7213 0.506931 12.0454L5.05232 7.5L0.506936 2.95461C-0.168972 2.2787 -0.168972 1.18284 0.506936 0.50693Z" fill="#EA2222"/>
</svg>
