<svg width="16" height="19" viewBox="0 0 16 19" fill="none" xmlns="http://www.w3.org/2000/svg">
<path fill-rule="evenodd" clip-rule="evenodd" d="M7.76428 0.0933949L3.90234 3.78773C3.69235 3.98861 3.84109 4.33207 4.13805 4.33207H7C7 4.33208 7 4.33208 7 4.33208V11.666C7 12.1943 7.44772 12.6226 8 12.6226C8.55229 12.6226 9 12.1943 9 11.666V4.33208C9 4.33208 9 4.33208 9 4.33207H11.8619C12.1589 4.33207 12.3076 3.98861 12.0976 3.78773L8.23568 0.0933937C8.10551 -0.0311316 7.89445 -0.0311312 7.76428 0.0933949ZM2.33334 8.15856C2.14924 8.15856 2 8.30131 2 8.47743V16.7679C2 16.9441 2.14924 17.0868 2.33334 17.0868H13.6667C13.8508 17.0868 14 16.9441 14 16.7679V8.47743C14 8.30131 13.8508 8.15856 13.6667 8.15856H12.3333C11.7811 8.15856 11.3333 7.73027 11.3333 7.20195C11.3333 6.67363 11.7811 6.24535 12.3333 6.24535H13.6667C14.9553 6.24535 16 7.24468 16 8.47743V16.7679C16 18.0007 14.9553 19 13.6667 19H2.33334C1.04467 19 0 18.0007 0 16.7679V8.47743C0 7.24468 1.04467 6.24535 2.33334 6.24535H3.66667C4.21897 6.24535 4.66667 6.67363 4.66667 7.20195C4.66667 7.73027 4.21897 8.15856 3.66667 8.15856H2.33334Z" fill="#2E6395"/>
</svg>
