<svg width="15" height="15" viewBox="0 0 15 15" fill="none" xmlns="http://www.w3.org/2000/svg">
<path fill-rule="evenodd" clip-rule="evenodd" d="M10.0126 0.512564C10.696 -0.170856 11.804 -0.170854 12.4874 0.512564L13.5732 1.59835C14.2566 2.28176 14.2566 3.3898 13.5732 4.07322L4.96358 12.6829C4.75328 12.8932 4.49286 13.0464 4.2069 13.1281L0.956062 14.0569C0.694162 14.1318 0.412292 14.0587 0.219692 13.8661C0.0270925 13.6735 -0.0459506 13.3917 0.0288724 13.1298L0.957692 9.87888C1.03939 9.59298 1.19262 9.33248 1.40292 9.12218L10.0126 0.512564ZM11.4268 1.57322C11.3291 1.47559 11.1708 1.47559 11.0732 1.57322L9.81063 2.83578L11.25 4.27512L12.5126 3.01256C12.6102 2.91493 12.6102 2.75664 12.5126 2.65901L11.4268 1.57322ZM10.1893 5.33578L8.75002 3.89644L2.46358 10.1829C2.43354 10.2129 2.41165 10.2501 2.39997 10.291L1.84203 12.2438L3.79482 11.6858C3.83567 11.6742 3.87287 11.6523 3.90292 11.6222L10.1893 5.33578Z" fill="#2E6395"/>
</svg>
