<svg width="17" height="17" viewBox="0 0 17 17" fill="none" xmlns="http://www.w3.org/2000/svg">
<path fill-rule="evenodd" clip-rule="evenodd" d="M0 1.1087C0 0.814655 0.0959529 0.532647 0.266742 0.32473C0.437532 0.116812 0.669181 0 0.910714 0H16.0893C16.3308 0 16.5625 0.116812 16.7332 0.32473C16.9041 0.532647 17 0.814655 17 1.1087C17 1.40274 16.9041 1.68474 16.7332 1.89266C16.5625 2.10058 16.3308 2.21739 16.0893 2.21739H0.910714C0.669181 2.21739 0.437532 2.10058 0.266742 1.89266C0.0959529 1.68474 0 1.40274 0 1.1087ZM0 8.5C0 8.20596 0.0959529 7.92395 0.266742 7.71603C0.437532 7.50812 0.669181 7.3913 0.910714 7.3913H16.0893C16.3308 7.3913 16.5625 7.50812 16.7332 7.71603C16.9041 7.92395 17 8.20596 17 8.5C17 8.79404 16.9041 9.07605 16.7332 9.28397C16.5625 9.49188 16.3308 9.6087 16.0893 9.6087H0.910714C0.669181 9.6087 0.437532 9.49188 0.266742 9.28397C0.0959529 9.07605 0 8.79404 0 8.5ZM0.910714 14.7826C0.669181 14.7826 0.437532 14.8994 0.266742 15.1074C0.0959529 15.3152 0 15.5973 0 15.8913C0 16.1853 0.0959529 16.4674 0.266742 16.6752C0.437532 16.8832 0.669181 17 0.910714 17H16.0893C16.3308 17 16.5625 16.8832 16.7332 16.6752C16.9041 16.4674 17 16.1853 17 15.8913C17 15.5973 16.9041 15.3152 16.7332 15.1074C16.5625 14.8994 16.3308 14.7826 16.0893 14.7826H0.910714Z" fill="white"/>
</svg>
