<svg width="18" height="18" viewBox="0 0 18 18" fill="none" xmlns="http://www.w3.org/2000/svg">
<path fill-rule="evenodd" clip-rule="evenodd" d="M8.63159 1.97304C4.86087 1.97304 1.80409 5.02981 1.80409 8.80054C1.80409 12.5713 4.86087 15.628 8.63159 15.628C12.4023 15.628 15.4591 12.5713 15.4591 8.80054C15.4591 5.02981 12.4023 1.97304 8.63159 1.97304ZM0.228516 8.80054C0.228516 4.15965 3.9907 0.397461 8.63159 0.397461C13.2725 0.397461 17.0347 4.15965 17.0347 8.80054C17.0347 13.4414 13.2725 17.2036 8.63159 17.2036C3.9907 17.2036 0.228516 13.4414 0.228516 8.80054Z" fill="#2E6395"/>
<path fill-rule="evenodd" clip-rule="evenodd" d="M5.44851 5.61746C5.75616 5.30981 6.25496 5.30981 6.56261 5.61746L8.63153 7.68637L10.7004 5.61746C11.0081 5.30981 11.5069 5.30981 11.8145 5.61746C12.1222 5.92511 12.1222 6.42391 11.8145 6.73156L9.74563 8.80047L11.8145 10.8694C12.1222 11.177 12.1222 11.6758 11.8145 11.9835C11.5069 12.2911 11.0081 12.2911 10.7004 11.9835L8.63152 9.91457L6.56261 11.9835C6.25496 12.2911 5.75616 12.2911 5.44851 11.9835C5.14086 11.6758 5.14086 11.177 5.44851 10.8694L7.51742 8.80047L5.44851 6.73156C5.14086 6.42391 5.14086 5.92511 5.44851 5.61746Z" fill="#2E6395"/>
</svg>
